# xmcd CD database file
#
# Track frame offsets:
#	150
#	21339
#	40525
#	60335
#	86310
#	107388
#	126363
#	149978
#	174516
#	196330
#	221073
#	244966
#	268134
#	286995
#	305128
#	327646
#
# Disc length: 4586 seconds
#
# Revision: 4
# Processed by: cddbd v1.5.2PL0 Copyright (c) Steve Scherf et al.
# Submitted via: CDex 1.70beta2
#
DISCID=f611e810
DTITLE=Varios - Lo Esencial de la Salsa
DYEAR=2009
DGENRE=Salsa
TTITLE0=Willie Colon - Talento de Television
TTITLE1=Ruben Blades - Camaleon
TTITLE2=Son by Four - A puro dolor
TTITLE3=Roberto Roena - Como te hago entender
TTITLE4=Orquesta Dan Den de Cuba - Mi cuerpo
TTITLE5=Hansel Camacho - A pesar del la distancia
TTITLE6=Orquesta Guayacan - Invierno en primavera
TTITLE7=Alberto Barros - Canta Carile Cardona - Por retenerte
TTITLE8=Hansel y Raul - Maria Teresa y Danilo
TTITLE9=David Parbon - Si me ves llorar
TTITLE10=Tamba Fuego - Mascaras
TTITLE11=Grupo Niche - Cali Pachanguero
TTITLE12=Omar Alfano - Paquito el Rareza
TTITLE13=Son de Azucar - Simplemente Amigos
TTITLE14=Cesar Mora - Caramelo de Mani
TTITLE15=Morist Jimez - Enamorado y que
EXTD=YEAR: 2009
EXTT0=
EXTT1=
EXTT2=
EXTT3=
EXTT4=
EXTT5=
EXTT6=
EXTT7=
EXTT8=
EXTT9=
EXTT10=
EXTT11=
EXTT12=
EXTT13=
EXTT14=
EXTT15=
PLAYORDER=
